<?xml version="1.0" standalone="no"?>
<!DOCTYPE svg PUBLIC "-//W3C//DTD SVG 1.1//EN" "http://www.w3.org/Graphics/SVG/1.1/DTD/svg11.dtd" >
<svg xmlns="http://www.w3.org/2000/svg" xmlns:xlink="http://www.w3.org/1999/xlink" version="1.1">
<metadata></metadata>
<defs>
<font id="gobold_boldregular" horiz-adv-x="1053" >
<font-face units-per-em="2048" ascent="1638" descent="-410" />
<missing-glyph horiz-adv-x="508" />
<glyph unicode="&#xd;" horiz-adv-x="508" />
<glyph horiz-adv-x="0" />
<glyph horiz-adv-x="0" />
<glyph unicode=" "  horiz-adv-x="508" />
<glyph unicode="&#x09;" horiz-adv-x="508" />
<glyph unicode="&#xa0;" horiz-adv-x="508" />
<glyph unicode="!" horiz-adv-x="616" d="M120 -20v365h375v-365h-375zM120 1982h375l-21 -1472h-333z" />
<glyph unicode="&#x22;" horiz-adv-x="1020" d="M120 1983h348l-36 -692h-276zM552 1983h348l-36 -692h-276z" />
<glyph unicode="#" horiz-adv-x="1399" d="M80 710v193h208l43 217h-209v193h248l133 670h287l-133 -670h195l133 670h287l-133 -670h180v-193h-219l-43 -217h220v-193h-259l-145 -730h-287l145 730h-195l-145 -730h-287l145 730h-169zM575 903h195l43 217h-195z" />
<glyph unicode="$" horiz-adv-x="1103" d="M120 413v283h333v-283q0 -113 98 -113t98 113v223q0 134 -255 317q-274 196 -274 476v184q0 374 290 420v180h282v-180q291 -46 291 -420v-284h-334v284q0 112 -97 113h-2q-97 0 -97 -113v-178q0 -123 255 -305q275 -196 275 -469v-248q0 -375 -291 -420v-243h-282v243 q-290 46 -290 420z" />
<glyph unicode="%" horiz-adv-x="1747" d="M125 1079v704q0 262 264 262q263 0 263 -262v-704q0 -262 -263 -262q-264 0 -264 262zM341 1079q0 -58 48 -58q47 0 47 58v704q0 58 -47 58h-2q-46 0 -46 -58v-704zM375 -20l737 2003h227l-736 -2003h-228zM1095 243v704q0 262 263 262q264 0 264 -262v-704 q0 -262 -264 -262h-2q-261 0 -261 262zM1311 243q0 -58 47 -58q48 0 48 58v704q0 58 -47 58h-2q-46 0 -46 -58v-704z" />
<glyph unicode="&#x26;" horiz-adv-x="1233" d="M120 413v327q0 204 134 273q-134 69 -134 273v295q0 401 340 430q44 3 90 3q39 0 80 -2q353 -24 353 -431v-104h-333v104q0 104 -50 111q-21 4 -46 4q-21 0 -45 -3q-56 -6 -56 -112v-295q0 -82 63 -107q15 -6 36 -7h98v134h333v-134h180v-319h-180v-440q0 -415 -369 -431 q-35 -1 -66 -1q-63 0 -109 5q-319 38 -319 427zM453 413q0 -93 31 -105q18 -9 65 -9q11 0 24 1q77 3 77 113v440h-98q-21 -1 -36 -7q-63 -24 -63 -106v-327z" />
<glyph unicode="'" horiz-adv-x="588" d="M120 1983h348l-36 -692h-276z" />
<glyph unicode="(" horiz-adv-x="594" d="M120 166v1632q0 427 444 432v-271q-111 -3 -111 -115v-1725q0 -111 111 -114v-272q-444 5 -444 433z" />
<glyph unicode=")" horiz-adv-x="594" d="M30 5q111 3 111 114v1725q0 112 -111 115v271q444 -5 444 -432v-1632q0 -428 -444 -433v272z" />
<glyph unicode="*" horiz-adv-x="1062" d="M120 1679q0 29 12 66q34 112 122 112q37 0 81 -22q46 -24 53 -24q1 0 1 1t-2 3q0 -1 -8 68q-1 13 -1 25q0 124 151 125h4q150 0 150 -119q0 -17 -3 -37q-9 -51 -9 -61v-2l1 1v-1q6 0 61 25q38 19 73 19q86 0 123 -110q13 -39 13 -70q0 -98 -121 -116q-18 -2 -41 -2 q-50 0 -50 -3q0 -2 10 -4q22 -10 70 -62q43 -45 43 -91q0 -60 -72 -113q-57 -42 -107 -42q-72 0 -113 84q-22 44 -28 44q-1 0 -1 -5v-3q0 3 -1 3q-5 0 -31 -46q-42 -76 -112 -76q-47 0 -103 39q-76 54 -76 113q0 48 50 96q52 53 58 55q14 3 14 5q0 3 -47 3q-30 0 -51 5 q-113 21 -113 117z" />
<glyph unicode="+" horiz-adv-x="1097" d="M120 845v273h288v287h282v-287h287v-273h-287v-287h-282v287h-288z" />
<glyph unicode="," horiz-adv-x="641" d="M120 -20v365h401v-309l-113 -383h-232l58 327h-114z" />
<glyph unicode="-" horiz-adv-x="836" d="M50 821v273h736v-273h-736z" />
<glyph unicode="." horiz-adv-x="615" d="M120 -20v365h375v-365h-375z" />
<glyph unicode="/" horiz-adv-x="807" d="M60 -20l399 2003h287l-399 -2003h-287z" />
<glyph unicode="0" horiz-adv-x="1103" d="M120 381v1200q0 433 431 433q432 0 432 -433v-1200q0 -432 -432 -432q-431 0 -431 432zM453 381q0 -113 98 -113q99 0 99 113v1200q0 113 -98 113h-2q-97 0 -97 -113v-1200z" />
<glyph unicode="1" horiz-adv-x="1123" d="M130 -20v319h265v1364h-265v319h598v-1683h265v-319h-863z" />
<glyph unicode="2" horiz-adv-x="1123" d="M130 -20v441q0 274 273 469q256 183 257 306v385q0 113 -97 113h-2q-98 0 -98 -113v-283h-333v283q0 433 431 433q432 0 432 -433v-392q0 -279 -274 -475q-256 -183 -256 -317v-98h530v-319h-863z" />
<glyph unicode="3" horiz-adv-x="1123" d="M130 382v283h330v-283q3 -113 102 -113q98 0 101 113v334q0 95 -32 109q-18 8 -62 8h-121v319h143q32 0 46 8q26 15 26 104v317q-3 113 -101 113q-99 0 -102 -113v-283h-330v283q0 432 432 433q431 0 431 -433v-319q0 -204 -134 -273q134 -69 134 -273v-334 q0 -433 -431 -433q-432 1 -432 433z" />
<glyph unicode="4" horiz-adv-x="1123" d="M52 461v271l503 1250h404v-1202h109v-319h-109v-481h-333v481h-574zM390 780h236v599z" />
<glyph unicode="5" horiz-adv-x="1124" d="M120 895l44 1087h820v-319h-500l-16 -335q31 36 168 36q19 0 38 -2q160 -14 244 -129q66 -91 66 -295v-557q0 -432 -432 -432q-431 0 -431 432v252h333v-252q0 -113 98 -113q99 0 99 113v557q0 92 -31 105q-18 9 -65 9q-12 0 -25 -1q-65 -3 -73 -58l-4 -98h-333z" />
<glyph unicode="6" horiz-adv-x="1123" d="M130 381v1200q0 433 431 433q432 0 432 -433v-283h-333v283q0 113 -98 113h-2q-97 0 -97 -113v-425q43 39 170 39q22 0 46 -2q147 -15 230 -105q84 -91 84 -317v-390q0 -432 -432 -432q-431 0 -431 432zM463 381q0 -113 98 -113q99 0 99 113v390q0 93 -31 105 q-18 9 -65 9q-12 0 -25 -1q-76 -3 -76 -113v-390z" />
<glyph unicode="7" horiz-adv-x="1123" d="M121 1663v319h887v-223l-400 -1779h-341l378 1683h-524z" />
<glyph unicode="8" horiz-adv-x="1123" d="M130 382v331q0 204 134 273q-134 69 -134 273v322q0 432 432 433q431 0 431 -433v-322q0 -204 -134 -273q134 -69 134 -273v-331q0 -433 -431 -433q-432 1 -432 433zM460 382q3 -113 102 -113q98 0 101 113v331q0 95 -32 109q-18 8 -65 8q-13 0 -27 -1q-79 -3 -79 -116 v-331zM460 1261q0 -117 101 -117q102 0 102 117v320q-3 113 -101 113q-99 0 -102 -113v-320z" />
<glyph unicode="9" horiz-adv-x="1123" d="M130 381v284h333v-284q0 -112 98 -113h2q97 0 97 113v426q-45 -40 -173 -40q-20 0 -43 2q-147 15 -230 105q-84 92 -84 317v390q0 432 432 433q431 0 431 -433v-1200q0 -432 -432 -432q-431 0 -431 432zM463 1191q0 -92 31 -105q17 -8 63 -8q12 0 27 1q76 2 76 112v390 q0 113 -98 113q-99 0 -99 -113v-390z" />
<glyph unicode=":" horiz-adv-x="614" d="M120 -20v365h374v-365h-374zM120 985v364h374v-364h-374z" />
<glyph unicode=";" horiz-adv-x="641" d="M120 -20v365h401v-309l-113 -383h-232l58 327h-114zM120 985v364h375v-364h-375z" />
<glyph unicode="&#x3c;" horiz-adv-x="1097" d="M120 819v311l857 480v-323l-567 -310l567 -300v-323z" />
<glyph unicode="=" horiz-adv-x="1097" d="M120 613v272h857v-272h-857zM120 1076v273h857v-273h-857z" />
<glyph unicode="&#x3e;" horiz-adv-x="1097" d="M120 354v323l567 300l-567 310v323l857 -480v-311z" />
<glyph unicode="?" horiz-adv-x="1103" d="M120 1298v283q0 433 432 433q431 0 431 -433v-197q0 -256 -206 -461q-192 -191 -192 -331v-65h-333v89q0 252 206 456q192 190 192 319v190q0 113 -97 113h-2q-98 0 -98 -113v-283h-333zM236 -20v365h375v-365h-375z" />
<glyph unicode="@" horiz-adv-x="1533" d="M130 596v801q0 628 637 628q636 0 636 -615v-127h-1v-59q0 -292 -292 -292h-84v-324q0 -292 -293 -292q-292 0 -292 292v257q0 291 292 291h57v242q0 67 -56 67h-2q-55 0 -55 -67v-90h-236v90q0 291 292 291q293 0 293 -291v-242h84q56 0 56 68v186q0 392 -399 392 q-400 0 -400 -405v-801q0 -392 400 -392q399 0 399 404v63h237v-63q0 -627 -636 -627q-637 0 -637 615zM661 608q0 -68 56 -68q57 0 57 68v324l-57 1q-56 0 -56 -68v-257z" />
<glyph unicode="A" horiz-adv-x="1107" d="M40 -20l95 715l203 1287h432l202 -1284l95 -718h-336l-55 416h-245l-56 -416h-335zM473 716h160l-80 606z" />
<glyph unicode="B" horiz-adv-x="1093" d="M130 -20v2002h461q402 -1 402 -433v-295q0 -204 -134 -273q134 -69 134 -273v-296q0 -431 -419 -432h-444zM463 299h99q98 0 98 113v296q0 82 -63 106q-17 7 -70 7h-64v-522zM463 1141h64q54 0 70 6q63 25 63 107v295q0 114 -98 114h-99v-522z" />
<glyph unicode="C" horiz-adv-x="1073" d="M110 381v1200q0 432 431 432q432 0 432 -432v-284h-333v284q0 112 -98 113h-2q-97 0 -97 -113v-1200q0 -113 98 -113q99 0 99 113v284h333v-284q0 -432 -432 -433q-431 0 -431 433z" />
<glyph unicode="D" horiz-adv-x="1103" d="M130 -20v2002h461q402 -1 402 -433v-1137q0 -431 -419 -432h-444zM463 299h99q98 0 98 113v1137q0 114 -98 114h-99v-1364z" />
<glyph unicode="E" horiz-adv-x="994" d="M130 -20v2002h784v-319h-451v-522h388v-320h-388v-522h451v-319h-784z" />
<glyph unicode="F" horiz-adv-x="974" d="M130 -20v2002h784v-319h-451v-522h388v-320h-388v-841h-333z" />
<glyph unicode="G" horiz-adv-x="1083" d="M110 381v1200q0 432 431 432q432 0 432 -432v-284h-333v284q0 112 -98 113h-2q-97 0 -97 -113v-1200q0 -113 98 -113q99 0 99 113v440h-86v320h419v-760q0 -432 -432 -433q-431 0 -431 433z" />
<glyph unicode="H" horiz-adv-x="1123" d="M130 -20v2002h333v-841h197v841h333v-2002h-333v841h-197v-841h-333z" />
<glyph unicode="I" horiz-adv-x="603" d="M135 -20v2002h333v-2002h-333z" />
<glyph unicode="J" horiz-adv-x="1023" d="M30 381v136h333v-136q0 -113 99 -113q98 0 98 113v1601h333v-1601q0 -433 -431 -433q-432 1 -432 433z" />
<glyph unicode="K" horiz-adv-x="1116" d="M130 -20v2002h333v-795l257 795h356l-382 -1001l382 -1001h-356l-257 798v-798h-333z" />
<glyph unicode="L" horiz-adv-x="954" d="M130 -20v2002h333v-1683h451v-319h-784z" />
<glyph unicode="M" horiz-adv-x="1538" d="M130 -20v2002h329l312 -1327l308 1327h329v-2002h-321v921l-196 -921h-234l-203 927v-927h-324z" />
<glyph unicode="N" horiz-adv-x="1123" d="M130 -20v2002h329l222 -986v986h312v-2002h-329l-212 959v-959h-322z" />
<glyph unicode="O" horiz-adv-x="1083" d="M110 381v1200q0 432 431 432q432 0 432 -432v-1200q0 -432 -432 -433q-431 0 -431 433zM443 381q0 -113 98 -113q99 0 99 113v1200q0 112 -98 113h-2q-97 0 -97 -113v-1200z" />
<glyph unicode="P" horiz-adv-x="1049" d="M130 -20v2002h437q402 -1 402 -433v-295q0 -317 -287 -411q-69 -22 -198 -22h-21v-841h-333zM463 1141h40q54 0 70 6q63 25 63 107v295q0 114 -98 114h-75v-522z" />
<glyph unicode="Q" horiz-adv-x="1083" d="M110 381v1200q0 432 431 432q432 0 432 -432v-1200q0 -385 -309 -424q2 -27 309 -29v-276q-283 0 -383 52q-134 68 -137 249q-343 25 -343 428zM443 381q0 -113 98 -113q99 0 99 113v1200q0 112 -98 113h-2q-97 0 -97 -113v-1200z" />
<glyph unicode="R" horiz-adv-x="1102" d="M130 -20v2002h437q402 -1 402 -433v-295q0 -272 -218 -352l321 -922h-363l-228 861h-18v-861h-333zM463 1141h40q54 0 70 6q63 25 63 107v295q0 114 -98 114h-75v-522z" />
<glyph unicode="S" horiz-adv-x="1083" d="M110 381v284h333v-284q0 -113 99 -113q98 0 98 113v224q0 133 -256 317q-274 195 -274 475v184q0 432 431 432q432 0 432 -432v-284h-333v284q0 112 -98 113h-2q-97 0 -97 -113v-178q0 -122 256 -306q274 -195 274 -468v-248q0 -433 -431 -433q-432 1 -432 433z" />
<glyph unicode="T" horiz-adv-x="963" d="M50 1663v319h863v-319h-265v-1683h-333v1683h-265z" />
<glyph unicode="U" horiz-adv-x="1103" d="M120 381v1601h333v-1601q0 -113 98 -113q99 0 99 113v1601h333v-1601q0 -432 -432 -433q-431 0 -431 433z" />
<glyph unicode="V" horiz-adv-x="1107" d="M40 1982h336l177 -1569l178 1569h336l-95 -718l-202 -1284h-432l-203 1286z" />
<glyph unicode="W" horiz-adv-x="1788" d="M40 1982h335l178 -1473l178 1473h325l178 -1473l178 1473h336l-95 -718l-202 -1284h-432l-125 1084l-124 -1084h-432l-203 1286z" />
<glyph unicode="X" horiz-adv-x="1082" d="M40 -20l332 1001l-332 1001h336l165 -574l164 574h336l-332 -1001l332 -1001h-336l-164 636l-165 -636h-336z" />
<glyph unicode="Y" horiz-adv-x="1130" d="M40 1982h352l173 -773l173 773h352l-351 -1138l-7 -21v-843h-333v842l-8 22z" />
<glyph unicode="Z" horiz-adv-x="930" d="M80 -20v192l378 1491h-365v319h740v-192l-378 -1491h395v-319h-770z" />
<glyph unicode="[" horiz-adv-x="597" d="M130 -267v2497h437v-272h-154v-1952h154v-273h-437z" />
<glyph unicode="\" horiz-adv-x="807" d="M60 1983h287l399 -2003h-287z" />
<glyph unicode="]" horiz-adv-x="597" d="M30 6h154v1952h-154v272h437v-2497h-437v273z" />
<glyph unicode="^" horiz-adv-x="1227" d="M100 1152l368 847h291l368 -847h-307l-207 476l-206 -476h-307z" />
<glyph unicode="_" horiz-adv-x="1082" d="M0 -87h1082v-251h-1082v251z" />
<glyph unicode="`" horiz-adv-x="836" d="M130 1973v105h258l318 -293h-286z" />
<glyph unicode="a" horiz-adv-x="1107" d="M40 -20l95 629l203 1133h432l202 -1130l95 -632h-336l-55 366h-245l-56 -366h-335zM473 628h160l-80 533z" />
<glyph unicode="b" horiz-adv-x="1093" d="M130 -20v1762h461q402 -1 402 -381v-260q0 -179 -134 -240q134 -61 134 -240v-261q0 -379 -419 -380h-444zM463 261h99q98 0 98 99v261q0 72 -63 93q-17 6 -70 6h-64v-459zM463 1002h64q54 0 70 5q63 22 63 94v260q0 100 -98 100h-99v-459z" />
<glyph unicode="c" horiz-adv-x="1073" d="M110 329v1056q0 380 431 380q432 0 432 -380v-250h-333v250q0 99 -98 100h-2q-97 0 -97 -100v-1056q0 -99 98 -99q99 0 99 99v250h333v-250q0 -380 -432 -381q-431 0 -431 381z" />
<glyph unicode="d" horiz-adv-x="1103" d="M130 -20v1762h461q402 -1 402 -381v-1001q0 -379 -419 -380h-444zM463 261h99q98 0 98 99v1001q0 100 -98 100h-99v-1200z" />
<glyph unicode="e" horiz-adv-x="994" d="M130 -20v1762h784v-281h-451v-459h388v-282h-388v-459h451v-281h-784z" />
<glyph unicode="f" horiz-adv-x="974" d="M130 -20v1762h784v-281h-451v-459h388v-282h-388v-740h-333z" />
<glyph unicode="g" horiz-adv-x="1083" d="M110 329v1056q0 380 431 380q432 0 432 -380v-250h-333v250q0 99 -98 100h-2q-97 0 -97 -100v-1056q0 -99 98 -99q99 0 99 99v387h-83v282h416v-669q0 -380 -432 -381q-431 0 -431 381z" />
<glyph unicode="h" horiz-adv-x="1123" d="M130 -20v1762h333v-740h197v740h333v-1762h-333v740h-197v-740h-333z" />
<glyph unicode="i" horiz-adv-x="603" d="M135 -20v1762h333v-1762h-333z" />
<glyph unicode="j" horiz-adv-x="1023" d="M30 329v120h333v-120q0 -99 99 -99q98 0 98 99v1409h333v-1409q0 -381 -431 -381q-432 1 -432 381z" />
<glyph unicode="k" horiz-adv-x="1116" d="M130 -20v1762h333v-656l257 656h356l-382 -881l382 -881h-356l-257 656v-656h-333z" />
<glyph unicode="l" horiz-adv-x="954" d="M130 -20v1762h333v-1481h451v-281h-784z" />
<glyph unicode="m" horiz-adv-x="1538" d="M130 -20v1762h329l312 -1168l308 1168h329v-1762h-321v811l-196 -811h-234l-203 816v-816h-324z" />
<glyph unicode="n" horiz-adv-x="1123" d="M130 -20v1762h329l222 -868v868h312v-1762h-329l-212 844v-844h-322z" />
<glyph unicode="o" horiz-adv-x="1083" d="M110 329v1056q0 380 431 380q432 0 432 -380v-1056q0 -380 -432 -381q-431 0 -431 381zM443 329q0 -99 98 -99q99 0 99 99v1056q0 99 -98 100h-2q-97 0 -97 -100v-1056z" />
<glyph unicode="p" horiz-adv-x="1049" d="M130 -20v1762h437q402 -1 402 -381v-260q0 -279 -287 -361q-69 -20 -198 -20h-21v-740h-333zM463 1002h40q54 0 70 5q63 22 63 94v260q0 100 -98 100h-75v-459z" />
<glyph unicode="q" horiz-adv-x="1083" d="M110 294v1056q0 380 431 380q432 0 432 -380v-1056q0 -339 -309 -374q2 -23 309 -25v-243q-283 0 -383 46q-134 60 -137 219q-343 22 -343 377zM443 294q0 -100 98 -100q99 0 99 100v1056q0 98 -98 99h-2q-97 0 -97 -99v-1056z" />
<glyph unicode="r" horiz-adv-x="1102" d="M130 -20v1762h437q402 -1 402 -381v-260q0 -239 -218 -310l321 -811h-363l-228 758h-18v-758h-333zM463 1002h40q54 0 70 5q63 22 63 94v260q0 100 -98 100h-75v-459z" />
<glyph unicode="s" horiz-adv-x="1083" d="M110 329v250h333v-250q0 -99 99 -99q98 0 98 99v197q0 117 -256 279q-274 172 -274 418v162q0 380 431 380q432 0 432 -380v-250h-333v250q0 99 -98 100h-2q-97 0 -97 -100v-156q0 -108 256 -270q274 -171 274 -412v-218q0 -381 -431 -381q-432 1 -432 381z" />
<glyph unicode="t" horiz-adv-x="963" d="M50 1461v281h863v-281h-265v-1481h-333v1481h-265z" />
<glyph unicode="u" horiz-adv-x="1103" d="M120 329v1409h333v-1409q0 -99 98 -99q99 0 99 99v1409h333v-1409q0 -380 -432 -381q-431 0 -431 381z" />
<glyph unicode="v" horiz-adv-x="1107" d="M40 1742h336l177 -1381l178 1381h336l-95 -632l-202 -1130h-432l-203 1132z" />
<glyph unicode="w" horiz-adv-x="1788" d="M40 1742h335l178 -1296l178 1296h325l178 -1296l178 1296h336l-95 -632l-202 -1130h-432l-125 954l-124 -954h-432l-203 1132z" />
<glyph unicode="x" horiz-adv-x="1082" d="M40 -20l332 881l-332 881h336l165 -505l164 505h336l-332 -881l332 -881h-336l-164 560l-165 -560h-336z" />
<glyph unicode="y" horiz-adv-x="1130" d="M40 1742h352l173 -680l173 680h352l-351 -1002l-7 -18v-742h-333v741l-8 19z" />
<glyph unicode="z" horiz-adv-x="930" d="M80 -20v169l378 1312h-365v281h740v-169l-378 -1312h395v-281h-770z" />
<glyph unicode="{" horiz-adv-x="595" d="M10 845v272q111 3 111 114v567q0 427 444 432v-271q-111 -3 -111 -115v-566q0 -205 -74 -296q74 -92 74 -297v-566q0 -111 111 -114v-272q-444 5 -444 433v566q0 111 -111 113z" />
<glyph unicode="|" horiz-adv-x="562" d="M140 -347v2657h282v-2657h-282z" />
<glyph unicode="}" horiz-adv-x="595" d="M30 5q111 3 111 114v566q0 205 74 297q-74 91 -74 296v566q0 112 -111 115v271q444 -5 444 -432v-567q0 -111 111 -114v-272q-111 -2 -111 -113v-566q0 -428 -444 -433v272z" />
<glyph unicode="~" horiz-adv-x="1163" d="M100 935l63 97q106 165 254 165h11q97 -4 238 -110q63 -47 97 -47q17 0 29 15l79 99l192 -153l-73 -92q-97 -123 -225 -123h-13q-97 4 -238 111q-74 56 -85 58h-3q-19 0 -51 -49l-68 -106z" />
<glyph unicode="&#xa1;" horiz-adv-x="565" d="M120 -253l21 1472h333l21 -1472h-375zM120 1384v365h375v-365h-375z" />
<glyph unicode="&#xa2;" horiz-adv-x="1135" d="M120 -336l116 384q-110 88 -110 288v1057q0 384 431 384q134 0 199 -27l69 223l190 -12l-98 -320q72 -87 72 -248v-252h-224l-272 -889q14 -13 64 -13q99 0 99 97v253h333v-253q0 -383 -432 -383q-100 0 -151 14l-97 -315zM459 775l196 640q-9 75 -97 76q-99 0 -99 -98 v-618z" />
<glyph unicode="&#xa3;" horiz-adv-x="1176" d="M60 -20v319h94q99 0 99 114v485h-193v198h193v485q0 433 431 433q432 0 432 -433v-283h-333v283q0 113 -98 113h-2q-97 0 -97 -113v-485h331v-198h-331v-346q0 -182 -46 -253h497v-319h-977z" />
<glyph unicode="&#xa4;" horiz-adv-x="1462" d="M130 574l175 174q-5 41 -5 100v267q0 49 3 83l-173 173l203 202l101 -101q84 76 297 76t298 -76l101 101l202 -202l-173 -173q4 -34 4 -83v-267q0 -58 -6 -100l175 -174l-202 -203l-112 113q-85 -68 -287 -68t-286 67l-112 -112zM633 848q0 -113 98 -113q99 0 99 113v267 q0 112 -98 113h-2q-97 0 -97 -113v-267z" />
<glyph unicode="&#xa5;" horiz-adv-x="1250" d="M100 1982h352l173 -683l173 683h352l-304 -986h208v-198h-262v-119h262v-199h-262v-500h-333v500h-262v199h262v119h-262v198h207z" />
<glyph unicode="&#xa6;" horiz-adv-x="562" d="M140 -20v824h282v-824h-282zM140 966v783h282v-783h-282z" />
<glyph unicode="&#xa7;" horiz-adv-x="1103" d="M120 908q0 285 168 351q-168 112 -168 379q0 376 428 376q411 0 411 -376v-120h-333v120q0 95 -87 95q-86 0 -86 -95q0 -170 252 -313q278 -157 278 -489q0 -300 -212 -348q212 -130 212 -435q0 -400 -429 -400q-411 0 -411 400v126h333v-126q0 -103 88 -103q85 0 85 103 q0 182 -254 336q-275 165 -275 519zM436 855q0 -124 108 -124q109 0 109 124v41q0 123 -108 124h-2q-107 0 -107 -124v-41z" />
<glyph unicode="&#xa8;" horiz-adv-x="949" d="M130 1786v282h292v-282h-292zM526 1786v282h293v-282h-293z" />
<glyph unicode="&#xa9;" horiz-adv-x="1513" d="M120 596v801q0 628 636 628q637 0 637 -615v-802q0 -627 -637 -627q-636 0 -636 615zM341 580q0 -408 415 -408q416 0 416 420v834q0 408 -415 408q-416 0 -416 -421v-833zM463 657v651q0 294 295 294q296 0 296 -294v-97h-239v97q0 68 -56 69q-58 0 -58 -69v-651 q0 -69 57 -69t57 69v96h239v-96q0 -295 -296 -295q-295 0 -295 295z" />
<glyph unicode="&#xaa;" horiz-adv-x="818" d="M60 905l65 390l136 687h298l135 -686l65 -391h-240l-36 221h-147l-37 -221h-239zM71 501v233h669v-233h-669zM366 1313h86l-43 258z" />
<glyph unicode="&#xab;" horiz-adv-x="1305" d="M130 1002l614 560v-391l-215 -182l215 -176v-382zM619 1002l614 560v-391l-215 -182l215 -176v-382z" />
<glyph unicode="&#xac;" horiz-adv-x="1117" d="M130 845v273h857v-560h-282v287h-575z" />
<glyph unicode="&#xad;" horiz-adv-x="836" d="M50 821v273h736v-273h-736z" />
<glyph unicode="&#xae;" horiz-adv-x="1513" d="M120 596v801q0 628 636 628q637 0 637 -615v-802q0 -627 -637 -627q-636 0 -636 615zM341 580q0 -408 415 -408q416 0 416 420v834q0 408 -415 408q-416 0 -416 -421v-833zM487 449v1141h283q260 0 260 -247v-168q0 -155 -141 -201l208 -525h-235l-148 491h-12v-491h-215 zM702 1111h26q35 0 45 3q41 14 41 61v168q0 65 -63 65h-49v-297z" />
<glyph unicode="&#xaf;" horiz-adv-x="1258" d="M0 1732v251h1258v-251h-1258z" />
<glyph unicode="&#xb0;" horiz-adv-x="927" d="M130 1741q0 328 333 328q334 0 334 -328q0 -329 -334 -329q-333 0 -333 329zM363 1741q0 -106 100 -106q101 0 101 106q0 105 -101 105q-100 0 -100 -105z" />
<glyph unicode="&#xb1;" horiz-adv-x="1097" d="M120 140v252h855v-252h-855zM120 845v273h288v287h282v-287h287v-273h-287v-287h-282v287h-288z" />
<glyph unicode="&#xb2;" horiz-adv-x="724" d="M100 811v266q0 163 163 280q145 104 146 172v224q0 58 -46 58h-1q-47 0 -47 -58v-173h-215v173q0 261 262 261t262 -261v-228q0 -167 -164 -284q-145 -104 -145 -178v-49h309v-203h-524z" />
<glyph unicode="&#xb3;" horiz-adv-x="729" d="M100 1051v175h215v-176q0 -60 49 -60q50 0 50 60v211q0 52 -13 57q-9 4 -32 4h-82v204h95q15 0 20 3q12 7 12 55v172q0 52 -13 57q-9 4 -34 4q-6 0 -15 -1q-37 -1 -37 -60v-174h-215v175q0 179 109 235q74 38 152 38q72 0 147 -33q121 -52 121 -240v-174q0 -125 -70 -161 q70 -36 70 -161v-210q0 -160 -87 -221q-55 -40 -169 -43h-14q-100 0 -157 34q-102 58 -102 230z" />
<glyph unicode="&#xb4;" horiz-adv-x="836" d="M130 1785l318 293h258v-105l-290 -188h-286z" />
<glyph unicode="&#xb5;" horiz-adv-x="1113" d="M130 -347v2002h333v-1275q0 -112 98 -112q99 0 99 113v1274h333v-1274q0 -390 -341 -428q-20 -2 -40 -2q-102 0 -149 31v-329h-333z" />
<glyph unicode="&#xb6;" horiz-adv-x="1220" d="M100 1310v354q0 207 79 269q62 50 261 50h650v-2003h-251v1762h-173v-1762h-251v1021q-179 0 -238 44q-77 59 -77 265z" />
<glyph unicode="&#xb7;" horiz-adv-x="508" d="M120 826v310h319v-310h-319z" />
<glyph unicode="&#xb8;" horiz-adv-x="687" d="M180 -206q90 -45 136 -45q50 0 51 51v2q0 82 -135 82q-21 0 -45 -2l29 139h175l-21 -60q-3 -2 -3 -3q0 -4 29 -4q41 0 74 -25q36 -26 36 -85v-99q0 -103 -125 -113q-16 -2 -37 -2q-11 0 -22 1q-142 4 -142 114v49z" />
<glyph unicode="&#xb9;" horiz-adv-x="1123" d="M130 810v201h153v770h-153v201h366v-971h153v-201h-519z" />
<glyph unicode="&#xba;" horiz-adv-x="827" d="M120 1110v634q0 238 293 238q294 0 294 -238v-634q0 -238 -294 -238q-293 0 -293 238zM130 486v215h566v-215h-566zM357 1110q0 -51 56 -51q57 0 57 51v634q0 50 -56 51q-57 0 -57 -51v-634z" />
<glyph unicode="&#xbb;" horiz-adv-x="1305" d="M130 431v382l215 176l-215 182v391l614 -560zM619 431v382l215 176l-215 182v391l614 -560z" />
<glyph unicode="&#xbc;" horiz-adv-x="1659" d="M120 810v201h153v770h-153v201h366v-971h153v-201h-519zM431 -20l737 2003h227l-736 -2003h-228zM955 256v165l291 724h250v-689h63v-200h-63v-276h-212v276h-329zM1174 456h110v279z" />
<glyph unicode="&#xbd;" horiz-adv-x="1735" d="M60 810v201h153v770h-153v201h366v-971h153v-201h-519zM371 -20l737 2003h227l-736 -2003h-228zM1111 -20v266q0 163 163 280q145 104 146 172v224q0 58 -46 58h-1q-47 0 -47 -58v-173h-215v173q0 261 262 261t262 -261v-228q0 -167 -164 -284q-145 -104 -145 -178v-49 h309v-203h-524z" />
<glyph unicode="&#xbe;" horiz-adv-x="1599" d="M100 1051v175h215v-176q0 -60 49 -60q50 0 50 60v211q0 52 -13 57q-9 4 -32 4h-82v204h95q15 0 20 3q12 7 12 55v172q0 52 -13 57q-9 4 -34 4q-6 0 -15 -1q-37 -1 -37 -60v-174h-215v175q0 179 109 235q74 38 152 38q72 0 147 -33q121 -52 121 -240v-174q0 -125 -70 -161 q70 -36 70 -161v-210q0 -160 -87 -221q-55 -40 -169 -43h-14q-100 0 -157 34q-102 58 -102 230zM371 -20l737 2003h227l-736 -2003h-228zM895 256v165l291 724h250v-689h63v-200h-63v-276h-212v276h-329zM1114 456h110v279z" />
<glyph unicode="&#xbf;" d="M120 148v197q0 256 206 461q192 191 192 331v65h333v-89q0 -252 -206 -456q-192 -190 -192 -319v-190q0 -113 97 -113h2q98 0 98 113v283h333v-283q0 -433 -432 -433q-431 0 -431 433zM492 1384v365h375v-365h-375z" />
<glyph unicode="&#xc0;" horiz-adv-x="1091" d="M60 -20l95 715l203 1287h432l202 -1284l95 -718h-336l-55 416h-245l-56 -416h-335zM218 2206v105h258l318 -293h-286zM493 716h160l-80 606z" />
<glyph unicode="&#xc1;" horiz-adv-x="1091" d="M60 -20l95 715l203 1287h432l202 -1284l95 -718h-336l-55 416h-245l-56 -416h-335zM353 2018l318 293h258v-105l-290 -188h-286zM493 716h160l-80 606z" />
<glyph unicode="&#xc2;" horiz-adv-x="1091" d="M60 -20l95 715l203 1287h432l202 -1284l95 -718h-336l-55 416h-245l-56 -416h-335zM133 2019l296 292h288l299 -292h-316l-127 87l-126 -87h-314zM493 716h160l-80 606z" />
<glyph unicode="&#xc3;" horiz-adv-x="1091" d="M60 -20l95 715l203 1287h432l202 -1284l95 -718h-336l-55 416h-245l-56 -416h-335zM199 2071l43 86q73 147 196 154h8q75 0 188 -70q44 -28 69 -28q13 0 21 12l55 89l169 -112l-50 -82q-70 -112 -179 -118h-8q-75 0 -186 70q-61 38 -66 39h-2q-11 0 -110 -121zM493 716 h160l-80 606z" />
<glyph unicode="&#xc4;" horiz-adv-x="1091" d="M60 -20l95 715l203 1287h432l202 -1284l95 -718h-336l-55 416h-245l-56 -416h-335zM229 2019v282h292v-282h-292zM493 716h160l-80 606zM625 2019v282h293v-282h-293z" />
<glyph unicode="&#xc5;" horiz-adv-x="1147" d="M60 -20l95 715l203 1287h9q-17 23 -17 112q0 218 223 218q224 0 224 -218q0 -89 -17 -112h10l202 -1284l95 -718h-336l-55 416h-245l-56 -416h-335zM493 716h160l-80 606zM518 2094q0 -61 55 -61q56 0 56 61q0 60 -56 60q-55 0 -55 -60z" />
<glyph unicode="&#xc6;" horiz-adv-x="1531" d="M60 -20l95 715l203 1287h980v-319h-451v-522h388v-320h-388v-522h451v-319h-784v416h-103l-56 -416h-335zM493 716h61v750z" />
<glyph unicode="&#xc7;" horiz-adv-x="1093" d="M120 381v1200q0 432 431 432q432 0 432 -432v-284h-333v284q0 112 -98 113h-2q-97 0 -97 -113v-1200q0 -113 98 -113q99 0 99 113v284h333v-284q0 -407 -368 -431q-2 -6 -2 -10q0 -12 15 -12q8 0 22 4q20 6 37 6q19 0 33 -9q36 -26 36 -85v-99q0 -103 -126 -113 q-15 -2 -37 -2q-10 0 -22 1q-141 4 -141 114v49l138 -3q25 -23 40 -23q21 0 23 43v10q0 31 -12 31q-11 0 -32 -27l-152 47l17 82q-332 33 -332 427z" />
<glyph unicode="&#xc8;" horiz-adv-x="944" d="M130 -20v2002h784v-319h-451v-522h388v-320h-388v-522h451v-319h-784zM166 2206v105h258l318 -293h-286z" />
<glyph unicode="&#xc9;" horiz-adv-x="944" d="M130 -20v2002h784v-319h-451v-522h388v-320h-388v-522h451v-319h-784zM302 2018l318 293h258v-105l-290 -188h-286z" />
<glyph unicode="&#xca;" horiz-adv-x="944" d="M108 2019l296 292h288l299 -292h-316l-127 87l-126 -87h-314zM157 -20v2002h784v-319h-451v-522h388v-320h-388v-522h451v-319h-784z" />
<glyph unicode="&#xcb;" horiz-adv-x="944" d="M130 -20v2002h784v-319h-451v-522h388v-320h-388v-522h451v-319h-784zM178 2019v282h292v-282h-292zM574 2019v282h293v-282h-293z" />
<glyph unicode="&#xcc;" horiz-adv-x="553" d="M-54 2206v105h258l318 -293h-286zM135 -20v2002h333v-2002h-333z" />
<glyph unicode="&#xcd;" horiz-adv-x="553" d="M111 2018l318 293h258v-105l-290 -188h-286zM165 -20v2002h333v-2002h-333z" />
<glyph unicode="&#xce;" horiz-adv-x="553" d="M-112 2019l296 292h288l299 -292h-316l-127 87l-126 -87h-314zM163 -20v2002h333v-2002h-333z" />
<glyph unicode="&#xcf;" horiz-adv-x="553" d="M-43 2019v282h292v-282h-292zM135 -20v2002h333v-2002h-333zM353 2019v282h293v-282h-293z" />
<glyph unicode="&#xd0;" horiz-adv-x="1165" d="M58 856v251h124v875l461 -1q402 0 402 -432v-1137q0 -431 -402 -431q-5 0 -17 -1h-444v876h-124zM515 299h99q98 0 98 113v1137q0 114 -98 114h-99v-556h98v-251h-98v-557z" />
<glyph unicode="&#xd1;" horiz-adv-x="1073" d="M130 -20v2002h329l222 -944v939l312 5v-2002h-329l-212 907v-907h-322zM187 2071l43 86q73 147 196 154h8q75 0 188 -70q44 -28 69 -28q13 0 21 12l55 89l169 -112l-50 -82q-70 -112 -179 -118h-8q-75 0 -186 70q-61 38 -66 39h-2q-11 0 -114 -114z" />
<glyph unicode="&#xd2;" d="M120 381v1200q0 432 431 432q432 0 432 -432v-1200q0 -432 -432 -433q-431 0 -431 433zM196 2206v105h258l318 -293h-286zM453 381q0 -113 98 -113q99 0 99 113v1200q0 112 -98 113h-2q-97 0 -97 -113v-1200z" />
<glyph unicode="&#xd3;" d="M120 381v1200q0 432 431 432q432 0 432 -432v-1200q0 -432 -432 -433q-431 0 -431 433zM331 2018l318 293h258v-105l-290 -188h-286zM453 381q0 -113 98 -113q99 0 99 113v1200q0 112 -98 113h-2q-97 0 -97 -113v-1200z" />
<glyph unicode="&#xd4;" d="M120 2019l296 292h288l299 -292h-316l-127 87l-126 -87h-314zM129 381v1200q0 432 431 432q432 0 432 -432v-1200q0 -432 -432 -433q-431 0 -431 433zM462 381q0 -113 98 -113q99 0 99 113v1200q0 112 -98 113h-2q-97 0 -97 -113v-1200z" />
<glyph unicode="&#xd5;" d="M120 381v1200q0 432 431 432q432 0 432 -432v-1200q0 -432 -432 -433q-431 0 -431 433zM177 2071l43 86q73 147 196 154h8q75 0 188 -70q44 -28 69 -28q13 0 21 12l55 89l169 -112l-50 -82q-78 -100 -182 -101q-3 -1 -5 -1q-101 0 -186 54q-61 38 -66 39h-2 q-11 0 -123 -114zM453 381q0 -113 98 -113q99 0 99 113v1200q0 112 -98 113h-2q-97 0 -97 -113v-1200z" />
<glyph unicode="&#xd6;" d="M120 381v1200q0 432 431 432q432 0 432 -432v-1200q0 -432 -432 -433q-431 0 -431 433zM207 2019v282h292v-282h-292zM453 381q0 -113 98 -113q99 0 99 113v1200q0 112 -98 113h-2q-97 0 -97 -113v-1200zM603 2019v282h293v-282h-293z" />
<glyph unicode="&#xd7;" horiz-adv-x="1111" d="M156 779l204 203l-203 203l196 196l203 -203l203 203l196 -197l-203 -202l203 -203l-196 -196l-203 202l-203 -203z" />
<glyph unicode="&#xd8;" horiz-adv-x="1103" d="M120 381v1200q0 432 431 432q92 0 137 -13l29 121h192l-49 -204q123 -100 123 -336v-1200q0 -432 -432 -433q-110 0 -163 19l-47 -193h-191l70 292q-100 101 -100 315zM453 1027l158 654q-15 13 -59 13h-2q-97 0 -97 -113v-554zM469 305q19 -37 82 -37q99 0 99 113v670z " />
<glyph unicode="&#xd9;" d="M120 381v1601h333v-1601q0 -113 98 -113q99 0 99 113v1601h333v-1601q0 -432 -432 -433q-431 0 -431 433zM196 2206v105h258l318 -293h-286z" />
<glyph unicode="&#xda;" d="M120 381v1601h333v-1601q0 -113 98 -113q99 0 99 113v1601h333v-1601q0 -432 -432 -433q-431 0 -431 433zM331 2018l318 293h258v-105l-290 -188h-286z" />
<glyph unicode="&#xdb;" d="M120 2019l296 292h288l299 -292h-316l-127 87l-126 -87h-314zM129 381v1601h333v-1601q0 -113 98 -113q99 0 99 113v1601h333v-1601q0 -432 -432 -433q-431 0 -431 433z" />
<glyph unicode="&#xdc;" d="M120 381v1601h333v-1601q0 -113 98 -113q99 0 99 113v1601h333v-1601q0 -432 -432 -433q-431 0 -431 433zM207 2019v282h292v-282h-292zM603 2019v282h293v-282h-293z" />
<glyph unicode="&#xdd;" horiz-adv-x="1106" d="M60 1982h352l173 -773l173 773h352l-351 -1138l-7 -21v-843h-333v842l-8 22zM365 2018l318 293h258v-105l-290 -188h-286z" />
<glyph unicode="&#xde;" horiz-adv-x="1068" d="M130 -347v2329h333v-327h67q7 0 19 -1h18q401 0 401 -432v-295q0 -317 -286 -411q-70 -22 -199 -22h-20v-841h-333zM463 813h39q53 0 71 7q62 25 62 107v295q0 114 -98 114h-74v-523z" />
<glyph unicode="&#xdf;" horiz-adv-x="1103" d="M130 -20v1570q0 432 431 432q432 0 432 -432v-296q0 -204 -135 -273q135 -68 135 -273v-508q0 -431 -401 -431l-54 -2v320q122 0 122 113v508q0 82 -63 107q-18 7 -71 7h-63v-842h-333zM463 1141h63q53 0 71 7q63 24 63 106v296q0 112 -98 113h-2q-97 0 -97 -113v-409z " />
<glyph unicode="&#xe0;" horiz-adv-x="1091" d="M60 -20l95 629l203 1133h432l202 -1130l95 -632h-336l-55 366h-245l-56 -366h-335zM218 1973v105h258l318 -293h-286zM493 628h160l-80 533z" />
<glyph unicode="&#xe1;" horiz-adv-x="1091" d="M60 -20l95 629l203 1133h432l202 -1130l95 -632h-336l-55 366h-245l-56 -366h-335zM353 1785l318 293h258v-105l-290 -188h-286zM493 628h160l-80 533z" />
<glyph unicode="&#xe2;" horiz-adv-x="1091" d="M60 -20l95 629l203 1133h432l202 -1130l95 -632h-336l-55 366h-245l-56 -366h-335zM133 1786l296 292h288l299 -292h-316l-127 87l-126 -87h-314zM493 628h160l-80 533z" />
<glyph unicode="&#xe3;" horiz-adv-x="1091" d="M60 -20l95 633l203 1136h432l202 -1133l95 -636h-336l-55 368h-245l-56 -368h-335zM199 1838l43 86q73 147 196 154h8q75 0 188 -70q44 -28 69 -28q13 0 21 12l55 89l169 -112l-50 -82q-70 -112 -179 -118h-8q-75 0 -186 70q-61 38 -66 39h-2q-11 0 -84 -119zM493 634 h160l-80 531z" />
<glyph unicode="&#xe4;" horiz-adv-x="1091" d="M60 -20l95 629l203 1133h432l202 -1130l95 -632h-336l-55 366h-245l-56 -366h-335zM229 1786v282h292v-282h-292zM493 628h160l-80 533zM625 1786v282h293v-282h-293z" />
<glyph unicode="&#xe5;" horiz-adv-x="1147" d="M60 -20l95 633l203 1136h9q-17 23 -17 112q0 218 223 218q224 0 224 -218q0 -89 -17 -112h10l202 -1133l95 -636h-336l-55 368h-245l-56 -368h-335zM493 634h160l-80 531zM518 1861q0 -61 55 -61q56 0 56 61q0 60 -56 60q-55 0 -55 -60z" />
<glyph unicode="&#xe6;" horiz-adv-x="1621" d="M60 -20l95 633l203 1136h981v-286h-451v-455h388v-286h-388v-456h451v-286h-784v368h-104l-56 -368h-335zM493 634h62v650z" />
<glyph unicode="&#xe7;" horiz-adv-x="1093" d="M120 336v1057q0 384 431 384q432 0 432 -384v-252h-333v252q0 97 -98 98q-99 0 -99 -98v-1057q0 -97 98 -97q99 0 99 97v253h333v-253q0 -380 -407 -383l-37 -43q41 28 82 26q94 -14 94 -116v-47q0 -143 -162 -143q-164 1 -164 115v49l130 -1q-1 -52 43 -52 q40 0 39.5 56.5t-22 57t-33.5 -29.5l-159 27l27 113q-294 44 -294 371z" />
<glyph unicode="&#xe8;" horiz-adv-x="924" d="M130 -20v1762h784v-281h-451v-459h388v-282h-388v-459h451v-281h-784zM166 1973v105h258l318 -293h-286z" />
<glyph unicode="&#xe9;" horiz-adv-x="924" d="M130 -20v1762h784v-281h-451v-459h388v-282h-388v-459h451v-281h-784zM302 1785l318 293h258v-105l-290 -188h-286z" />
<glyph unicode="&#xea;" horiz-adv-x="924" d="M108 1786l296 292h288l299 -292h-316l-127 87l-126 -87h-314zM157 -20v1762h784v-281h-451v-459h388v-282h-388v-459h451v-281h-784z" />
<glyph unicode="&#xeb;" horiz-adv-x="924" d="M130 -20v1762h784v-281h-451v-459h388v-282h-388v-459h451v-281h-784zM178 1786v282h292v-282h-292zM574 1786v282h293v-282h-293z" />
<glyph unicode="&#xec;" horiz-adv-x="514" d="M-54 1973v105h258l318 -293h-286zM135 -20v1769h333v-1769h-333z" />
<glyph unicode="&#xed;" horiz-adv-x="514" d="M111 1785l318 293h258v-105l-290 -188h-286zM165 -20v1769h333v-1769h-333z" />
<glyph unicode="&#xee;" horiz-adv-x="514" d="M-112 1786l296 292h288l299 -292h-316l-127 87l-126 -87h-314zM163 -20v1769h333v-1769h-333z" />
<glyph unicode="&#xef;" horiz-adv-x="514" d="M-43 1786v282h292v-282h-292zM135 -20v1769h333v-1769h-333zM353 1786v282h293v-282h-293z" />
<glyph unicode="&#xf0;" horiz-adv-x="1103" d="M120 413v365q0 412 376 412q115 0 154 -31q0 195 -77 317l-212 -179l-167 198l195 164q-37 23 -167 73l81 259q233 -68 324 -133l172 145l166 -198l-150 -126q168 -223 168 -627v-639q0 -433 -431 -433q-432 0 -432 433zM453 413q0 -113 99 -113q98 0 98 113v365 q0 110 -76 113q-14 1 -26 1q-47 0 -64 -8q-31 -13 -31 -106v-365z" />
<glyph unicode="&#xf1;" horiz-adv-x="1073" d="M130 -20v1769h328l223 -834v830l312 4v-1769h-328l-213 802v-802h-322zM187 1838l43 86q73 147 196 154h8q75 0 188 -70q44 -28 69 -28q13 0 21 12l55 89l169 -112l-50 -82q-70 -112 -179 -118h-8q-75 0 -186 70q-61 38 -66 39h-2q-11 0 -32 -41l-52 -84z" />
<glyph unicode="&#xf2;" d="M120 329v1056q0 380 431 380q432 0 432 -380v-1056q0 -380 -432 -381q-431 0 -431 381zM196 1973v105h258l318 -293h-286zM453 329q0 -99 98 -99q99 0 99 99v1056q0 99 -98 100h-2q-97 0 -97 -100v-1056z" />
<glyph unicode="&#xf3;" d="M120 329v1056q0 380 431 380q432 0 432 -380v-1056q0 -380 -432 -381q-431 0 -431 381zM331 1785l318 293h258v-105l-290 -188h-286zM453 329q0 -99 98 -99q99 0 99 99v1056q0 99 -98 100h-2q-97 0 -97 -100v-1056z" />
<glyph unicode="&#xf4;" d="M120 1786l296 292h288l299 -292h-316l-127 87l-126 -87h-314zM129 329v1056q0 380 431 380q432 0 432 -380v-1056q0 -380 -432 -381q-431 0 -431 381zM462 329q0 -99 98 -99q99 0 99 99v1056q0 99 -98 100h-2q-97 0 -97 -100v-1056z" />
<glyph unicode="&#xf5;" d="M120 336v1057q0 384 431 384q432 0 432 -384v-1057q0 -383 -432 -383q-431 0 -431 383zM177 1838l43 86q73 147 196 154h8q75 0 188 -70q44 -28 69 -28q13 0 21 12l55 89l169 -112l-50 -82q-70 -112 -179 -118h-8q-75 0 -186 70q-61 38 -66 39h-2q-11 0 -102 -118z M453 336q0 -97 98 -97q99 0 99 97v1057q0 97 -98 98q-99 0 -99 -98v-1057z" />
<glyph unicode="&#xf6;" d="M120 329v1056q0 380 431 380q432 0 432 -380v-1056q0 -380 -432 -381q-431 0 -431 381zM207 1786v282h292v-282h-292zM453 329q0 -99 98 -99q99 0 99 99v1056q0 99 -98 100h-2q-97 0 -97 -100v-1056zM603 1786v282h293v-282h-293z" />
<glyph unicode="&#xf7;" horiz-adv-x="1045" d="M120 846v274h855v-274h-855zM360 299v365h374v-365h-374zM360 1304v364h374v-364h-374z" />
<glyph unicode="&#xf8;" horiz-adv-x="1115" d="M119 -336l117 384q-110 89 -110 288v1057q0 384 431 384q134 0 199 -27l68 223l190 -12l-97 -319q72 -87 72 -249v-1057q0 -383 -432 -383q-100 0 -152 14l-97 -315zM459 778l196 640q-10 72 -97 73q-99 0 -99 -98v-615zM492 253q15 -14 65 -14q99 0 99 97v453z" />
<glyph unicode="&#xf9;" d="M120 329v1409h333v-1409q0 -99 98 -99q99 0 99 99v1409h333v-1409q0 -380 -432 -381q-431 0 -431 381zM196 1973v105h258l318 -293h-286z" />
<glyph unicode="&#xfa;" d="M120 329v1409h333v-1409q0 -99 98 -99q99 0 99 99v1409h333v-1409q0 -380 -432 -381q-431 0 -431 381zM331 1785l318 293h258v-105l-290 -188h-286z" />
<glyph unicode="&#xfb;" d="M120 1786l296 292h288l299 -292h-316l-127 87l-126 -87h-314zM129 329v1409h333v-1409q0 -99 98 -99q99 0 99 99v1409h333v-1409q0 -380 -432 -381q-431 0 -431 381z" />
<glyph unicode="&#xfc;" d="M120 329v1409h333v-1409q0 -99 98 -99q99 0 99 99v1409h333v-1409q0 -380 -432 -381q-431 0 -431 381zM207 1786v282h292v-282h-292zM603 1786v282h293v-282h-293z" />
<glyph unicode="&#xfd;" horiz-adv-x="1106" d="M60 1742h352l173 -680l173 680h352l-351 -1002l-7 -18v-742h-333v741l-8 19zM366 1785l318 293h258v-105l-290 -188h-286z" />
<glyph unicode="&#xfe;" horiz-adv-x="1060" d="M130 -347v2329h333v-327h67q7 0 19 -1h18q401 0 401 -432v-295q0 -317 -286 -411q-70 -22 -199 -22h-20v-841h-333zM463 813h39q53 0 71 7q62 25 62 107v295q0 114 -98 114h-74v-523z" />
<glyph unicode="&#xff;" horiz-adv-x="1106" d="M60 1742h352l173 -680l173 680h352l-351 -1002l-7 -18v-742h-333v741l-8 19zM242 1786v282h292v-282h-292zM638 1786v282h293v-282h-293z" />
<glyph unicode="&#x2c6;" horiz-adv-x="1214" d="M166 1786l296 292h288l299 -292h-316l-127 87l-126 -87h-314z" />
<glyph unicode="&#x2dc;" horiz-adv-x="1008" d="M130 1838l43 86q73 147 196 154h8q75 0 188 -70q44 -28 69 -28q13 0 21 12l55 89l169 -112l-50 -82q-70 -112 -179 -118h-8q-75 0 -186 70q-61 38 -66 39h-2q-11 0 -32 -41l-46 -94z" />
<glyph unicode="&#x2000;" horiz-adv-x="1157" />
<glyph unicode="&#x2001;" horiz-adv-x="2314" />
<glyph unicode="&#x2002;" horiz-adv-x="1157" />
<glyph unicode="&#x2003;" horiz-adv-x="2314" />
<glyph unicode="&#x2004;" horiz-adv-x="771" />
<glyph unicode="&#x2005;" horiz-adv-x="578" />
<glyph unicode="&#x2006;" horiz-adv-x="385" />
<glyph unicode="&#x2007;" horiz-adv-x="385" />
<glyph unicode="&#x2008;" horiz-adv-x="289" />
<glyph unicode="&#x2009;" horiz-adv-x="462" />
<glyph unicode="&#x200a;" horiz-adv-x="128" />
<glyph unicode="&#x2010;" horiz-adv-x="836" d="M50 821v273h736v-273h-736z" />
<glyph unicode="&#x2011;" horiz-adv-x="836" d="M50 821v273h736v-273h-736z" />
<glyph unicode="&#x2012;" horiz-adv-x="836" d="M50 821v273h736v-273h-736z" />
<glyph unicode="&#x2013;" horiz-adv-x="1222" d="M50 821v273h1110v-273h-1110z" />
<glyph unicode="&#x2014;" horiz-adv-x="2098" d="M50 821v273h2013v-273h-2013z" />
<glyph unicode="&#x2018;" horiz-adv-x="607" d="M130 1291v310l112 382h233l-58 -327h113v-365h-400z" />
<glyph unicode="&#x2019;" horiz-adv-x="660" d="M130 1618v365h400v-310l-112 -382h-233l58 327h-113z" />
<glyph unicode="&#x201a;" horiz-adv-x="607" d="M120 -20v365h401v-309l-113 -383h-232l58 327h-114z" />
<glyph unicode="&#x201c;" horiz-adv-x="1047" d="M130 1291v310l112 382h233l-58 -327h113v-365h-400zM620 1291v310l112 382h233l-58 -327h113v-365h-400z" />
<glyph unicode="&#x201d;" horiz-adv-x="1100" d="M130 1618v365h400v-310l-112 -382h-233l58 327h-113zM620 1618v365h400v-310l-112 -382h-233l58 327h-113z" />
<glyph unicode="&#x201e;" horiz-adv-x="1100" d="M130 -19v365h400v-310l-112 -382h-233l58 327h-113zM620 -19v365h400v-310l-112 -382h-233l58 327h-113z" />
<glyph unicode="&#x2022;" horiz-adv-x="1037" d="M130 983q0 158 113 271t275 113q163 0 276 -113t113 -271q0 -157 -112 -269q-114 -114 -277 -114q-162 0 -276 114q-112 112 -112 269z" />
<glyph unicode="&#x2026;" horiz-adv-x="2048" d="M120 -20v365h375v-365h-375zM803 -20v365h375v-365h-375zM1486 -20v365h375v-365h-375z" />
<glyph unicode="&#x202f;" horiz-adv-x="462" />
<glyph unicode="&#x2039;" horiz-adv-x="874" d="M130 1002l614 560v-391l-215 -182l215 -176v-382z" />
<glyph unicode="&#x203a;" horiz-adv-x="874" d="M130 431v382l215 176l-215 182v391l614 -560z" />
<glyph unicode="&#x205f;" horiz-adv-x="578" />
<glyph unicode="&#x20ac;" horiz-adv-x="1144" d="M30 723v198h141v120h-141v198h141v342q0 433 431 433q432 0 432 -433v-283h-333v283q0 113 -98 113h-2q-97 0 -97 -113v-342h382v-198h-382v-120h382v-198h-382v-342q0 -113 98 -113q99 0 99 113v284h333v-284q0 -432 -432 -432q-431 0 -431 432v342h-141z" />
<glyph unicode="&#x2122;" horiz-adv-x="1158" d="M60 1597v152h416v-152h-119v-673h-178v673h-119zM479 925v825h172l130 -466l128 466h173v-825h-172v256l-63 -256h-128l-67 262v-262h-173z" />
<glyph unicode="&#x25fc;" horiz-adv-x="1740" d="M0 0v1740h1740v-1740h-1740z" />
</font>
</defs>
</svg>
