<?xml version="1.0" standalone="no"?>
<!DOCTYPE svg PUBLIC "-//W3C//DTD SVG 20010904//EN"
 "http://www.w3.org/TR/2001/REC-SVG-20010904/DTD/svg10.dtd">
<svg version="1.0" xmlns="http://www.w3.org/2000/svg"
 width="300.000000pt" height="300.000000pt" viewBox="0 0 300.000000 300.000000"
 preserveAspectRatio="xMidYMid meet">
<metadata>
Created by potrace 1.11, written by Peter Selinger 2001-2013
</metadata>
<g transform="translate(0.000000,300.000000) scale(0.100000,-0.100000)"
fill="#000000" stroke="none">
<path d="M1287 2979 c-193 -40 -340 -117 -487 -255 -150 -142 -256 -326 -301
-524 -22 -97 -17 -324 10 -460 18 -86 75 -229 88 -217 2 3 6 32 8 65 19 342
319 689 675 781 69 18 114 20 595 20 l520 1 298 301 c163 165 297 301 297 302
0 2 -365 3 -810 3 -723 0 -819 -2 -893 -17z"/>
<path d="M1289 2294 c-139 -35 -265 -109 -374 -218 -49 -49 -105 -118 -105
-128 0 -3 85 -5 188 -5 l188 -1 39 79 c21 43 42 79 47 79 4 0 8 5 8 11 0 6 6
16 13 24 6 7 27 32 46 55 40 49 103 110 114 110 4 0 7 4 7 10 0 15 -75 8 -171
-16z"/>
<path d="M1583 2268 c71 -69 143 -166 189 -254 l38 -71 185 -1 185 -1 -17 29
c-22 39 -117 138 -173 182 -118 94 -262 152 -401 164 l-61 5 55 -53z"/>
<path d="M1430 2179 c-58 -63 -159 -206 -160 -225 0 -7 72 -11 230 -11 l231
-1 -32 57 c-48 86 -179 242 -203 240 -6 0 -36 -27 -66 -60z"/>
<path d="M760 1855 c-32 -41 -76 -180 -86 -275 l-6 -55 199 2 c109 0 207 1
218 2 17 1 21 7 20 38 -2 47 18 174 39 242 9 30 16 55 16 55 0 1 -88 1 -196 1
-120 0 -199 -4 -204 -10z"/>
<path d="M1234 1858 c-19 -30 -49 -168 -59 -268 l-6 -65 325 1 c179 0 328 2
330 5 2 2 0 31 -5 64 -5 33 -11 74 -14 90 -5 35 -37 168 -43 175 -6 8 -523 7
-528 -2z"/>
<path d="M1840 1860 c0 -3 5 -21 10 -40 19 -62 31 -133 36 -205 3 -38 7 -74 8
-80 3 -8 380 -13 428 -6 18 3 -25 194 -61 276 l-27 60 -197 0 c-108 0 -197 -2
-197 -5z"/>
<path d="M2389 1428 c0 -29 -2 -60 -4 -68 -33 -153 -61 -225 -130 -336 -111
-177 -290 -317 -502 -391 l-78 -27 -538 -2 -538 -1 -301 -300 -301 -300 839 2
839 1 93 27 c124 37 189 67 291 134 204 136 359 347 423 578 19 69 22 104 22
260 0 155 -3 192 -23 268 -23 91 -70 207 -83 207 -5 0 -8 -24 -9 -52z"/>
<path d="M670 1435 c0 -33 35 -181 55 -230 36 -91 13 -82 235 -83 150 -1 198
2 195 11 -10 33 -36 149 -40 183 -9 68 -14 108 -14 127 -1 16 -18 17 -216 17
l-215 0 0 -25z"/>
<path d="M1174 1406 c9 -77 31 -201 36 -201 1 0 3 -10 6 -23 12 -64 -1 -61
284 -61 l259 0 10 32 c18 56 41 164 47 224 4 32 7 63 8 68 1 6 -116 11 -327
13 l-329 2 6 -54z"/>
<path d="M1889 1408 c0 -29 -2 -64 -5 -78 -12 -70 -28 -138 -39 -171 l-13 -37
200 0 200 0 28 62 c25 55 67 218 65 256 0 13 -32 15 -217 18 l-218 2 -1 -52z"/>
<path d="M804 1049 c-2 -4 -1 -9 3 -11 5 -1 26 -25 48 -53 140 -174 336 -286
530 -301 28 -2 56 -6 63 -9 24 -9 11 11 -41 60 -67 64 -143 166 -187 252 l-35
68 -188 0 c-104 0 -190 -3 -193 -6z"/>
<path d="M1270 1049 c0 -48 205 -307 234 -296 18 7 129 136 162 188 26 42 64
108 64 112 0 1 -103 3 -230 3 -126 0 -230 -3 -230 -7z"/>
<path d="M1783 1005 c-43 -85 -110 -180 -181 -254 -37 -39 -65 -72 -62 -72 7
-2 6 -2 76 5 162 16 324 96 446 222 54 56 117 133 118 144 0 3 -84 6 -186 6
l-186 0 -25 -51z"/>
</g>
</svg>
